<svg width="256" height="256" viewBox="0 0 256 256" fill="none" xmlns="http://www.w3.org/2000/svg">
<rect x="5" y="6" width="245" height="245" rx="77" fill="white"/>
<path d="M173.205 134.281C173.205 135.733 173.991 137.07 175.259 137.776L199.054 151.023C201.721 152.508 205 150.58 205 147.528V92.1602C205 89.1291 201.76 87.1994 199.095 88.6431L175.3 101.532C174.009 102.231 173.205 103.581 173.205 105.049V134.281Z" fill="#0F172A"/>
<path d="M113.716 84.314C112.415 85.0099 111.603 86.3656 111.603 87.841V134.3C111.603 135.741 112.378 137.072 113.633 137.781L140.87 153.185C142.125 153.895 142.901 155.225 142.901 156.667V168.812C142.901 170.217 143.638 171.519 144.843 172.242L167.147 185.622C169.814 187.222 173.205 185.301 173.205 182.192V156.629C173.205 155.207 172.45 153.892 171.223 153.175L144.883 137.791C143.655 137.074 142.901 135.759 142.901 134.337V75.377C142.901 72.355 139.678 70.4245 137.014 71.85L113.716 84.314Z" fill="#0F172A"/>
<path d="M52.1131 66.6133C50.8122 67.3093 50 68.6649 50 70.1403V134.3C50 135.741 50.7759 137.072 52.0309 137.781L79.2672 153.185C80.5222 153.895 81.2981 155.225 81.2981 156.667V186.896C81.2981 188.352 82.0892 189.693 83.3636 190.397L105.668 202.721C108.334 204.194 111.603 202.266 111.603 199.22V156.629C111.603 155.207 110.848 153.892 109.62 153.175L83.2806 137.791C82.0529 137.074 81.2981 135.759 81.2981 134.337V57.6763C81.2981 54.6544 78.0758 52.7239 75.4112 54.1494L52.1131 66.6133Z" fill="#0F172A"/>
<path d="M173.205 134.281C173.205 135.733 173.991 137.07 175.259 137.776L199.054 151.023C201.721 152.508 205 150.58 205 147.528V92.1602C205 89.1291 201.76 87.1994 199.095 88.6431L175.3 101.532C174.009 102.231 173.205 103.581 173.205 105.049V134.281Z" stroke="#0F172A" stroke-linejoin="round"/>
<path d="M113.716 84.314C112.415 85.0099 111.603 86.3656 111.603 87.841V134.3C111.603 135.741 112.378 137.072 113.633 137.781L140.87 153.185C142.125 153.895 142.901 155.225 142.901 156.667V168.812C142.901 170.217 143.638 171.519 144.843 172.242L167.147 185.622C169.814 187.222 173.205 185.301 173.205 182.192V156.629C173.205 155.207 172.45 153.892 171.223 153.175L144.883 137.791C143.655 137.074 142.901 135.759 142.901 134.337V75.377C142.901 72.355 139.678 70.4245 137.014 71.85L113.716 84.314Z" stroke="#0F172A" stroke-linejoin="round"/>
<path d="M52.1131 66.6133C50.8122 67.3093 50 68.6649 50 70.1403V134.3C50 135.741 50.7759 137.072 52.0309 137.781L79.2672 153.185C80.5222 153.895 81.2981 155.225 81.2981 156.667V186.896C81.2981 188.352 82.0892 189.693 83.3636 190.397L105.668 202.721C108.334 204.194 111.603 202.266 111.603 199.22V156.629C111.603 155.207 110.848 153.892 109.62 153.175L83.2806 137.791C82.0529 137.074 81.2981 135.759 81.2981 134.337V57.6763C81.2981 54.6544 78.0758 52.7239 75.4112 54.1494L52.1131 66.6133Z" stroke="#0F172A" stroke-linejoin="round"/>
</svg>
